<?xml version="1.0" encoding="UTF-8"?>
<!DOCTYPE svg PUBLIC "-//W3C//DTD SVG 1.1//EN" "http://www.w3.org/Graphics/SVG/1.1/DTD/svg11.dtd">
<!-- Creator: CorelDRAW 2021 (64-Bit) -->
<svg xmlns="http://www.w3.org/2000/svg" xml:space="preserve" width="297mm" height="210mm" version="1.1" style="shape-rendering:geometricPrecision; text-rendering:geometricPrecision; image-rendering:optimizeQuality; fill-rule:evenodd; clip-rule:evenodd"
viewBox="0 0 29700 21000"
 xmlns:xlink="http://www.w3.org/1999/xlink"
 xmlns:xodm="http://www.corel.com/coreldraw/odm/2003">
 <defs>
  <style type="text/css">
   <![CDATA[
    .fil0 {fill:none}
    .fil1 {fill:white}
   ]]>
  </style>
 </defs>
 <g id="Layer_x0020_1">
  <metadata id="CorelCorpID_0Corel-Layer"/>
  <rect class="fil0" x="9049.81" y="9237.13" width="11599.32" height="2540"/>
  <g id="_2104166526304">
   <path class="fil1" d="M12797.56 10506.45c6.45,4.23 59.8,82.66 77.23,99.96 29.33,29.1 88.19,57.51 108.39,78.43 100.83,26.88 252.33,55.47 347.11,-42.71 12.72,-13.18 9.1,-10.72 12.28,-16.41 12.5,-18.69 -29.31,-22.38 24.59,-12.44l4.23 56.49 94.33 3.94 0.02 -364 -262.42 -1.91c16.52,17.33 8.38,50.62 8.38,98.86l140.93 1.33c16.29,76.39 -30.81,100.75 -76.07,129.67 -154.75,98.86 -349.49,-0.8 -364.16,-200.1 -16.22,-220.29 152.86,-352.63 323.03,-278.18 29.08,12.72 46.44,24.63 66.01,44.09 22.88,22.76 23.62,35.07 45.76,53.59 18.72,-13.61 39.5,-28.96 62.71,-45.16 20.86,-14.57 43.74,-20.03 43.27,-48.09 -179.24,-271.61 -587.54,-188.15 -682.72,119.24 -42.47,137.14 -5.72,212.05 27.1,323.4z"/>
   <path class="fil1" d="M14132.7 10396.18c5.15,-42.26 93.02,-281.27 113.2,-304.72l105.41 304.73 -218.61 -0.01zm-255.09 289.25c-9.47,38.09 -7.78,10.43 3,24.3l143.93 -1.29c22.72,-32.46 24.89,-85.89 53.91,-118.11 -1.27,-28.52 12.02,-54.89 22.36,-82.82l279.33 -0.29c18.16,31.68 63.52,157.96 63.8,187.6 30.84,21.36 34.44,15.59 79.92,15.29 30.46,-0.2 60.38,1.09 90.1,-4.01l-6.16 -30.23 -295.73 -769.75 -135.13 -0.6 -299.33 779.91z"/>
   <path class="fil1" d="M14897.19 10248.57c20.89,11.02 204.6,242.54 239.44,289.02 20.33,27.13 57.48,78.92 85.08,97.16 19.52,-64.78 4.66,7.87 -3.37,-60.52 1.45,-1.48 4.21,-5.33 4.89,-3.85 0.07,0.15 16.51,-8.93 23.48,-25.69 0.75,-1.78 1.55,-4.03 2.11,-6.02l0.77 -58.14c-0.6,-3.32 -0.84,-5.04 -1.63,-8.16l-12.65 -27.25c46.34,9.4 12.34,-2.48 25.32,-14.82l0 -508.05c168.66,0 127.08,-58.39 127.08,389.51 0,131.94 0,263.88 0,395.82l10.74 -1.75 -0.08 -796.7 -152.65 -3.81c-1.86,40.36 10.21,486.11 -11.39,517.72l-20.19 -28.03c-44.38,-71.14 -286.82,-341.19 -297.8,-385.6 -20.79,-10.27 -13.9,4 -15.57,-20.54 -68.77,-43.83 -40.7,-114.77 -194.66,-79.27l-0.87 795.63 155.22 4.34 1.02 -506.45c22.7,16.53 24.67,17.92 35.71,45.45z"/>
   <path class="fil1" d="M15633.16 9913.45l-4.19 1285.1 29.59 4.35c0,-417.99 17.28,-860.87 -9.03,-1264.87 59.2,13.06 109.3,-6.45 150.26,9.67 -35.81,8.59 -86.41,-3.19 -107.6,-0.09 -44.47,6.51 -14.69,-4.9 -39.61,17.02 15.17,14.2 2.29,9.36 31,15.75l84.37 0.52c32.49,4.54 10.47,-5.33 28.7,11.53 -11.31,44.23 -0.6,90.01 47.67,88.26 47.68,-1.71 47.58,-40.75 51.25,-90.06l184.42 -0.36c2.22,46.18 3.56,91.27 52.59,90.56 48.17,-0.71 50.31,-44.78 52.44,-89.63l198.68 -0.73c1.71,35.74 -2.01,45.59 14.44,72.64l8.96 11.84c0.43,0.57 2.05,2.17 2.78,3.46 72.87,7.22 74.46,-21.31 78.13,-88.57l76.61 0.58 2.4 275.41c98.02,-124.45 83.85,-67.43 78.43,-354.56l-155.84 0.6c-7.84,-61.12 16.03,-112.12 -51.96,-113.56 -71.89,-1.51 -49.14,52.48 -54.66,113.53l-196.86 -0.33c-4.01,-37.18 -0.89,-77.5 -14.09,-104.91 -112.27,-34.29 -85.07,31.81 -93.14,105.39l-182.42 -0.13c-6.94,-55.74 3.94,-63.74 -16.39,-108.62 -112.02,-15.34 -81.18,20.14 -90.24,108.21l-156.69 2z"/>
   <path class="fil1" d="M15658.56 11202.9c153.52,7.63 326.6,0.79 482.64,0.79 91.23,0 430.85,11.41 493.55,-5.11 0,-81.11 10.62,-576.16 -6.96,-606.78 -79.09,94.11 -61.14,82.46 -61.15,236.43 -0.01,103.36 2.65,210.32 -1.34,313.22l-866.83 -0.84 1.76 -1150.9 96.42 2.72c-18.23,-16.86 3.79,-6.99 -28.7,-11.53l-84.37 -0.52c-28.71,-6.39 -15.83,-1.55 -31,-15.75 24.92,-21.92 -4.86,-10.51 39.61,-17.02 21.19,-3.1 71.79,8.68 107.6,0.09 -40.96,-16.12 -91.06,3.39 -150.26,-9.67 26.31,404 9.03,846.88 9.03,1264.87z"/>
   <path class="fil1" d="M16717.45 10155.01c-17.17,39.64 -40.55,60.52 -68.51,97.37 -12.32,16.23 -17.71,24.21 -32.05,43.78 -18.34,25.05 -13.9,24.25 -39.33,40.9 -4.78,21.63 3.45,-2.35 -6.06,16.34 -0.02,0.04 -8.9,14.96 -9.08,15.24l-73.59 95.91c-53.19,70.39 -271.1,345.51 -284.96,380.61 20.56,22.93 72.7,61.13 98.2,74.98l49.27 -45.71c16.67,-41.65 212.39,-290.61 254.11,-344 41.49,-53.09 237.66,-296.92 249.39,-340.05 -34,-18.35 -71.22,-56.91 -104.04,-69.22l-29.17 30.93c-0.5,-1.28 -2.73,2.04 -4.18,2.92z"/>
   <path class="fil1" d="M13635.03 10708.74l131.9 1.48c15.91,-59.02 10.72,-701.89 4.44,-799.92l-139.38 0.71c-6.02,85.45 -8.01,741.62 3.04,797.73z"/>
   <path class="fil1" d="M15221.71 10634.75l23.47 39.45c38.08,46.08 22.87,34.29 142.53,33.38 0,-131.94 0,-263.88 0,-395.82 0,-447.9 41.58,-389.51 -127.08,-389.51l0 508.05c-12.98,12.34 21.02,24.22 -25.32,14.82l12.65 27.25c0.79,3.12 1.03,4.84 1.63,8.16l-0.77 58.14c-0.56,1.99 -1.36,4.24 -2.11,6.02 -6.97,16.76 -23.41,25.84 -23.48,25.69 -0.68,-1.48 -3.44,2.37 -4.89,3.85 8.03,68.39 22.89,-4.26 3.37,60.52z"/>
   <path class="fil1" d="M14938.15 11196.55l41.69 -114.22 -41.69 114.22zm79.41 -250.6c27.17,0 77.09,3.87 89.87,76.91 -17.51,70.01 -46.43,75.44 -73.6,75.44 -27.17,0 -63.99,-52.58 -63.99,-75.44 0,-22.86 20.55,-76.91 47.72,-76.91zm-79.41 250.6c22.43,-5.69 13.94,-2.87 25.11,-12.71l1.02 -95.49 15.56 -6.02c34.95,105.43 247.71,-42.61 87.65,-155.41 -45.4,-7.83 -59.91,-9.83 -94.69,18.99 -24.05,-22.27 -9.85,-19.15 -36.15,-23.97l1.5 274.61z"/>
   <path class="fil1" d="M15612.83 11212.69c171.7,-3.95 346.98,0.07 519.9,0.07 99.33,0 442.69,12.58 514.94,-5.65l-2.81 -633.78 -17.07 18.47c17.58,30.62 6.96,525.67 6.96,606.78 -62.7,16.52 -402.32,5.11 -493.55,5.11 -156.04,0 -329.12,6.84 -482.64,-0.79l-29.59 -4.35 4.19 -1285.1c-19.43,13.48 -17.86,-14.75 -16.57,76.54 2.53,178.5 6.06,1158.89 -3.76,1222.7z"/>
   <path class="fil1" d="M15794.11 10374.56l682.92 0.57 -0.02 -46.9 -682.9 3.05c7.57,17.11 8.64,28.3 0,43.28z"/>
   <polygon class="fil1" points="15797.7,10246.15 16475.42,10249.12 16478.93,10202.99 15794.11,10203.6 "/>
   <path class="fil1" d="M12852.76 11082.87l37.25 33.27c30.7,-27.49 42,-84.54 63.35,-123.87l41.03 95.34c16.56,33.88 -2.8,11.87 22.62,29.13 30.09,-12.82 42.04,-64.02 63.3,-115.12 17.74,-42.62 44.22,-95.33 55.55,-139.48 -5.9,-9.02 17.63,-7.81 -20.4,-6.37 -21.44,37.88 -32.31,73.97 -49.79,114.46 -13,30.11 -27.67,82.51 -49.93,105 -53.32,-101.59 -49.58,-112.5 -3.05,-217.74 -39.74,-5.25 -43.19,49.61 -61.53,81.54 -33.97,-77.75 -17.71,-75.11 -56.74,-86.19 24.52,128.23 71.43,80.1 -6.93,225.59 -20.21,-35.1 -35.69,-79.78 -51.84,-119.31 -39.78,-97.38 -30.48,-105.78 -69.94,-103.24 17.76,59.39 84.71,175.92 87.05,226.99z"/>
   <path class="fil1" d="M13748.08 10880.94c91.64,-16.05 164.55,8.23 161.11,108.13 -3.23,93.74 -72.34,115.92 -161.51,100.18l0.4 -208.31zm-26.65 229.75c199.34,56.18 281.22,-137.43 161.67,-236.16 -47.41,-28.11 -105.1,-24.88 -166.44,-18.71l4.77 254.87z"/>
   <path class="fil1" d="M13211.7 10406.66c0,-48.24 8.14,-81.53 -8.38,-98.86l262.42 1.91 -0.02 364 -94.33 -3.94 -4.23 -56.49c-53.9,-9.94 -12.09,-6.25 -24.59,12.44 22.62,11.52 10.23,-0.15 14.72,32.78 1.37,10.04 -0.3,37.26 0.08,50.16l133.73 -0.67 -3.6 -413.56 -291.73 2.2 -0.43 82.87c0.44,47.79 -2.92,12.17 16.36,27.16z"/>
   <polygon class="fil1" points="15799.44,10504.74 16276.11,10506.62 16276.59,10467.14 15800.85,10468.14 "/>
   <path class="fil1" d="M13455.2 10952.09c88.3,-45.4 128.3,99.62 55.87,133.63 -42.72,20.06 -85.89,-5.38 -92.42,-39.74 -8.99,-47.35 5.25,-77.79 36.55,-93.89zm120.88 37.05l-19.76 -45.47c-73.79,-35.56 -75.52,-28.73 -137.55,9.55l-1.15 -82.5c-4.21,-23.35 15.08,5.93 -11.15,-25.86 -28.85,15.11 -15.7,42.93 -15.56,127.3 0.06,41.74 -10.48,111.85 7.09,143.11 30.87,-11.92 5.61,6.36 23.72,-31.49 54.99,70.6 162.5,30.81 154.36,-94.64z"/>
   <path class="fil1" d="M16834.69 10002.15c-15.13,36.92 -30.31,35.59 -43.25,72.55 29.77,28.7 66.35,60.55 105.57,76.46 28.78,-38.53 77.43,-90.17 32.16,-136.03l-36.75 -27.21c-20.38,5.82 -44.37,12.14 -57.73,14.23z"/>
   <path class="fil1" d="M13619.87 10712.98l15.16 -4.24c-11.05,-56.11 -9.06,-712.28 -3.04,-797.73l139.38 -0.71c6.28,98.03 11.47,740.9 -4.44,799.92l8.48 0.42c15.36,-57.01 10.75,-709.85 4.39,-806.66 -46.39,-6.42 -115.65,-9.69 -161.08,3.08l1.15 805.92z"/>
   <path class="fil1" d="M14413.65 11005.19c10.13,-84.29 123.24,-86.31 135.09,-0.12l-135.09 0.12zm6.28 -72.08c-5.27,10.45 -75.96,93.23 -6.18,157.79 46.52,43.03 127.55,33.36 147.68,-26.63 -6.49,1.12 -141.76,87.53 -145.9,-39.16l159.84 0.59c-2.51,-79.6 -40.86,-108.25 -123.42,-102.21l-32.02 9.62z"/>
   <path class="fil1" d="M14131.88 11004.22l-134.72 1.32c12.27,-88.19 124.46,-83.54 134.72,-1.32zm-136 -55.61c-107.25,137.06 105.01,232.29 148.18,117.32 -54.04,4.1 -39.21,36.88 -90.32,28.56 -32.95,-5.35 -55.06,-31.67 -54.26,-68.68l159.82 -1.02 -6.4 -52.58c-24.4,-19.96 -30.19,-41.64 -70.9,-48.9 -41.32,-7.36 -63.3,6.23 -86.12,25.3z"/>
   <path class="fil1" d="M15182.17 11005.14c13.35,-89.11 124.74,-82.31 134.74,0.16l-134.74 -0.16zm13.86 53.17c-7.4,-8.85 -5.27,-3.38 -11.21,-18.15 -5.09,-12.66 -0.75,-4.07 -0.41,-14.96l156.2 -1.08 2.35 -26.68c-31.49,-113.66 -173.76,-90.97 -189.75,3.05 -19.69,115.74 142.34,160.8 175.96,65.36 -24.27,1.51 -107.88,69.99 -133.14,-7.54z"/>
   <path class="fil1" d="M13189.57 11003.69c9.95,-81 120.46,-85.92 134.87,1.89l-134.87 -1.89zm-13.07 -48.42c-58.4,179.57 121,198.25 161.44,111.96 -55.04,-1.86 -24.83,36.45 -100.8,24.6 -26.58,-14.67 -44.57,-27.39 -45.98,-64.49l161.11 -1.99 -12.52 -67.74c-30.35,-13.2 -32.71,-37.86 -85.66,-35.93 -39.5,1.43 -54.67,24.3 -77.59,33.59z"/>
   <path class="fil1" d="M14729.78 11039.9c-24.32,-96.82 113.6,-134.65 133.58,-41.41 22.76,106.23 -112.91,123.69 -133.58,41.41zm41.41 -112.77c-126.76,37.49 -64.77,227.45 60.36,183.01 106.34,-37.77 62.41,-219.32 -60.36,-183.01z"/>
   <path class="fil1" d="M14357.14 10917.08c-32.63,13.69 -21.79,4.03 -35.78,39.33 -14.25,35.98 -32.24,96.83 -51.29,122.92 -17.79,-26.27 -55.62,-115.31 -55.48,-150.37l-33.4 -7.55c8.57,37.07 22.6,64.95 37.57,102.37 22.76,56.88 21.72,79.6 51.31,93.14 27.33,-14.71 29.49,-39.84 48.42,-88.24 14.81,-37.9 32.65,-69.45 38.65,-111.6z"/>
   <path class="fil1" d="M14684.67 11107.63c-13.73,-32.7 -0.11,-4.72 -41.22,-23.03l-0.82 -189.19c0.39,-42.27 8.76,-38.59 -16.96,-49.98 -1.2,1.73 -2.96,2.29 -3.27,5.39l-6.06 70.5c1.06,112.3 -22.25,231.6 68.33,186.31z"/>
   <path class="fil1" d="M15384.94 11120.95l24.13 -8.96 4.97 -132.81c74.27,-62.48 45.55,-10.29 66.35,-49.35 -40.41,-21.75 -59.35,23.45 -64.32,15.57 -1.24,-1.97 -4.76,2.64 -8.18,3.79l5.14 -25.01c-29.58,1.16 -12.08,-8.78 -29.15,5.65l1.06 191.12z"/>
   <path class="fil1" d="M16156 11008.67l103.36 -42.39c-15.22,-27.93 -52.55,-54.25 -87.79,-66.57l-15.57 108.96z"/>
  </g>
 </g>
</svg>
