<?xml version="1.0" encoding="UTF-8"?>
<!DOCTYPE svg PUBLIC "-//W3C//DTD SVG 1.1//EN" "http://www.w3.org/Graphics/SVG/1.1/DTD/svg11.dtd">
<!-- Creator: CorelDRAW 2021 (64-Bit) -->
<svg xmlns="http://www.w3.org/2000/svg" xml:space="preserve" width="297mm" height="210mm" version="1.1" style="shape-rendering:geometricPrecision; text-rendering:geometricPrecision; image-rendering:optimizeQuality; fill-rule:evenodd; clip-rule:evenodd"
viewBox="0 0 29700 21000"
 xmlns:xlink="http://www.w3.org/1999/xlink"
 xmlns:xodm="http://www.corel.com/coreldraw/odm/2003">
 <defs>
  <style type="text/css">
   <![CDATA[
    .fil0 {fill:white}
   ]]>
  </style>
 </defs>
 <g id="Layer_x0020_1">
  <metadata id="CorelCorpID_0Corel-Layer"/>
  <g id="_2104171557808">
   <path class="fil0" d="M3407.33 10503.29c35.97,23.59 333.47,460.94 430.66,557.41 163.55,162.27 491.78,320.7 604.42,437.36 562.26,149.89 1407.08,309.32 1935.61,-238.17 70.93,-73.5 50.74,-59.78 68.47,-91.51 69.71,-104.22 -163.44,-124.8 137.13,-69.37l23.58 315.01 526.02 21.97 0.11 -2029.79 -1463.34 -10.65c92.12,96.64 46.73,282.27 46.73,551.28l785.87 7.41c90.84,425.98 -171.81,561.82 -424.19,723.09 -862.94,551.28 -1948.88,-4.46 -2030.68,-1115.83 -90.45,-1228.41 852.4,-1966.38 1801.32,-1551.23 162.16,70.94 258.97,137.35 368.1,245.87 127.59,126.91 131.71,195.56 255.17,298.83 104.39,-75.89 220.27,-161.49 349.69,-251.83 116.33,-81.24 243.91,-111.69 241.29,-268.16 -999.5,-1514.59 -3276.32,-1049.19 -3807.08,664.92 -236.83,764.74 -31.9,1182.47 151.12,1803.39z"/>
   <path class="fil0" d="M10852.53 9888.39c28.72,-235.66 518.71,-1568.46 631.24,-1699.23l587.81 1699.28 -1219.05 -0.05zm-1422.47 1612.96c-52.81,212.4 -43.38,58.16 16.73,135.5l802.6 -7.19c126.7,-181.01 138.8,-478.95 300.62,-658.62 -7.08,-159.04 67.03,-306.09 124.69,-461.84l1557.64 -1.61c101.27,176.65 354.21,880.83 355.77,1046.12 171.98,119.11 192.05,86.93 445.66,85.26 169.86,-1.12 336.7,6.08 502.43,-22.36l-34.35 -168.57 -1649.09 -4292.4 -753.53 -3.34 -1669.17 4349.05z"/>
   <path class="fil0" d="M15115.59 9065.26c116.49,61.45 1140.92,1352.49 1335.2,1611.68 113.37,151.28 320.53,440.08 474.44,541.8 108.85,-361.24 25.98,43.88 -18.79,-337.48 8.08,-8.26 23.47,-29.73 27.26,-21.47 0.39,0.83 92.07,-49.8 130.94,-143.26 4.18,-9.93 8.64,-22.47 11.76,-33.57l4.3 -324.21c-3.35,-18.51 -4.69,-28.1 -9.09,-45.5l-70.54 -151.96c258.4,52.42 68.81,-13.83 141.19,-82.64l0 -2833.06c940.51,0 708.64,-325.6 708.64,2172.04 0,735.75 0,1471.49 0,2207.23l59.89 -9.76 -0.45 -4442.67 -851.22 -21.25c-10.38,225.06 56.93,2710.72 -63.52,2886.99l-112.59 -156.31c-247.47,-396.7 -1599.4,-1902.59 -1660.63,-2150.24 -115.93,-57.26 -77.51,22.31 -86.82,-114.53 -383.49,-244.41 -226.96,-640 -1085.5,-442.04l-4.85 4436.71 865.56 24.2 5.69 -2824.14c126.58,92.18 137.57,99.93 199.13,253.44z"/>
   <path class="fil0" d="M19219.61 7196.52l-23.36 7166.16 165 24.26c0,-2330.86 96.36,-4800.51 -50.35,-7053.36 330.12,72.83 609.49,-35.96 837.9,53.93 -199.69,47.9 -481.85,-17.79 -600.01,-0.5 -247.98,36.3 -81.92,-27.33 -220.88,94.91 84.59,79.18 12.77,52.19 172.86,87.82l470.48 2.9c181.18,25.32 58.38,-29.72 160.04,64.3 -63.07,246.64 -3.34,501.93 265.83,492.17 265.88,-9.54 265.32,-227.24 285.78,-502.21l1028.39 -2.01c12.38,257.52 19.86,508.96 293.26,505 268.62,-3.96 280.55,-249.71 292.43,-499.81l1107.91 -4.07c9.53,199.3 -11.21,254.22 80.52,405.06l49.96 66.03c2.4,3.18 11.43,12.1 15.5,19.29 406.35,40.26 415.22,-118.83 435.68,-493.89l427.21 3.23 13.38 1535.78c546.59,-693.98 467.58,-376.01 437.35,-1977.15l-869.01 3.35c-43.72,-340.83 89.38,-625.22 -289.75,-633.25 -400.88,-8.42 -274.02,292.64 -304.8,633.08l-1097.76 -1.84c-22.36,-207.33 -4.97,-432.17 -78.57,-585.01 -626.06,-191.22 -474.38,177.38 -519.38,587.69l-1017.24 -0.73c-38.7,-310.82 21.97,-355.43 -91.4,-605.7 -624.66,-85.54 -452.69,112.31 -503.21,603.42l-873.76 11.15z"/>
   <path class="fil0" d="M19361.25 14386.94c856.08,42.54 1821.24,4.4 2691.37,4.4 508.73,0 2402.57,63.63 2752.21,-28.49 0,-452.3 59.22,-3212.87 -38.81,-3383.62 -441.04,524.79 -340.94,459.83 -341,1318.42 -0.05,576.37 14.78,1172.81 -7.47,1746.62l-4833.74 -4.68 9.81 -6417.82 537.67 15.17c-101.66,-94.02 21.14,-38.98 -160.04,-64.3l-470.48 -2.9c-160.09,-35.63 -88.27,-8.64 -172.86,-87.82 138.96,-122.24 -27.1,-58.61 220.88,-94.91 118.16,-17.29 400.32,48.4 600.01,0.5 -228.41,-89.89 -507.78,18.9 -837.9,-53.93 146.71,2252.85 50.35,4722.5 50.35,7053.36z"/>
   <path class="fil0" d="M25265.99 8543.54c-95.75,221.05 -226.12,337.48 -382.03,542.97 -68.71,90.5 -98.76,135 -178.73,244.13 -102.27,139.69 -77.51,135.23 -219.31,228.07 -26.66,120.62 19.23,-13.1 -33.8,91.12 -0.11,0.22 -49.63,83.42 -50.63,84.99l-410.36 534.82c-296.61,392.52 -1511.75,1926.69 -1589.04,2122.42 114.65,127.86 405.4,340.88 547.6,418.11l274.74 -254.9c92.96,-232.25 1184.36,-1620.54 1417.01,-1918.26 231.36,-296.05 1325.27,-1655.73 1390.68,-1896.23 -189.59,-102.33 -397.14,-317.35 -580.16,-386l-162.66 172.48c-2.79,-7.14 -15.22,11.37 -23.31,16.28z"/>
   <path class="fil0" d="M8077.35 11631.33l735.52 8.25c88.72,-329.11 59.78,-3913.98 24.76,-4460.63l-777.23 3.96c-33.57,476.5 -44.67,4135.53 16.95,4448.42z"/>
   <path class="fil0" d="M16925.23 11218.74l130.87 219.98c212.35,256.96 127.54,191.22 794.8,186.14 0,-735.74 0,-1471.48 0,-2207.23 0,-2497.64 231.87,-2172.04 -708.64,-2172.04l0 2833.06c-72.38,68.81 117.21,135.06 -141.19,82.64l70.54 151.96c4.4,17.4 5.74,26.99 9.09,45.5l-4.3 324.21c-3.12,11.1 -7.58,23.64 -11.76,33.57 -38.87,93.46 -130.55,144.09 -130.94,143.26 -3.79,-8.26 -19.18,13.21 -27.26,21.47 44.77,381.36 127.64,-23.76 18.79,337.48z"/>
   <path class="fil0" d="M15344 14351.53l232.48 -636.93 -232.48 636.93zm442.82 -1397.43c151.51,0 429.88,21.58 501.14,428.87 -97.64,390.4 -258.91,420.68 -410.42,420.68 -151.51,0 -356.83,-293.2 -356.83,-420.68 0,-127.47 114.6,-428.87 266.11,-428.87zm-442.82 1397.43c125.08,-31.73 77.73,-16.01 140.02,-70.88l5.69 -532.48 86.77 -33.57c194.89,587.91 1381.31,-237.61 488.76,-866.62 -253.16,-43.67 -334.08,-54.82 -528.02,105.89 -134.11,-124.18 -54.93,-106.78 -201.59,-133.66l8.37 1531.32z"/>
   <path class="fil0" d="M19106.25 14441.53c957.46,-22.03 1934.88,0.39 2899.14,0.39 553.9,0 2468.59,70.15 2871.48,-31.51l-15.67 -3534.17 -95.18 102.99c98.03,170.75 38.81,2931.32 38.81,3383.62 -349.64,92.12 -2243.48,28.49 -2752.21,28.49 -870.13,0 -1835.29,38.14 -2691.37,-4.4l-165 -24.26 23.36 -7166.16c-108.34,75.17 -99.59,-82.25 -92.4,426.81 14.11,995.38 33.8,6462.37 -20.96,6818.2z"/>
   <path class="fil0" d="M20117.13 9767.83l3808.2 3.18 -0.12 -261.53 -3808.08 17c42.21,95.41 48.18,157.81 0,241.35z"/>
   <polygon class="fil0" points="20137.15,9051.77 23916.35,9068.33 23935.92,8811.09 20117.13,8814.5 "/>
   <path class="fil0" d="M3715.14 13717.61l207.72 185.52c171.2,-153.29 234.21,-471.42 353.26,-690.74l228.8 531.65c92.35,188.93 -15.61,66.19 126.14,162.44 167.79,-71.49 234.43,-357 352.98,-641.95 98.93,-237.66 246.59,-531.59 309.77,-777.79 -32.9,-50.3 98.31,-43.55 -113.76,-35.52 -119.56,211.23 -180.17,412.48 -277.65,638.27 -72.49,167.9 -154.29,460.1 -278.42,585.52 -297.33,-566.51 -276.48,-627.34 -17.01,-1214.2 -221.61,-29.27 -240.84,276.64 -343.11,454.7 -189.43,-433.56 -98.76,-418.84 -316.41,-480.63 136.74,715.06 398.32,446.67 -38.64,1257.97 -112.7,-195.73 -199.02,-444.88 -289.08,-665.31 -221.82,-543.03 -169.96,-589.87 -390.01,-575.71 99.04,331.18 472.38,980.99 485.42,1265.78z"/>
   <path class="fil0" d="M8707.76 12591.58c511.01,-89.5 917.59,45.89 898.4,602.97 -18.01,522.72 -403.39,646.41 -900.63,558.64l2.23 -1161.61zm-148.61 1281.16c1111.59,313.28 1568.18,-766.35 901.53,-1316.91 -264.38,-156.75 -586.08,-138.74 -928.13,-104.33l26.6 1421.24z"/>
   <path class="fil0" d="M5716.72 9946.83c0,-269.01 45.39,-454.64 -46.73,-551.28l1463.34 10.65 -0.11 2029.79 -526.02 -21.97 -23.58 -315.01c-300.57,-55.43 -67.42,-34.85 -137.13,69.37 126.14,64.24 57.05,-0.83 82.09,182.79 7.64,55.99 -1.68,207.78 0.44,279.71l745.73 -3.73 -20.08 -2306.16 -1626.78 12.27 -2.4 462.11c2.45,266.5 -16.28,67.87 91.23,151.46z"/>
   <polygon class="fil0" points="20146.85,10493.76 22804.93,10504.24 22807.6,10284.09 20154.71,10289.66 "/>
   <path class="fil0" d="M7074.56 12988.33c492.39,-253.16 715.44,555.52 311.55,745.17 -238.22,111.86 -478.95,-30 -515.37,-221.6 -50.13,-264.04 29.28,-433.79 203.82,-523.57zm674.07 206.61l-110.19 -253.56c-411.48,-198.29 -421.13,-160.21 -767.03,53.26l-6.41 -460.05c-23.48,-130.21 84.09,33.06 -62.18,-144.21 -160.88,84.26 -87.55,239.39 -86.77,709.87 0.34,232.76 -58.44,623.72 39.54,798.03 172.14,-66.47 31.28,35.47 132.27,-175.6 306.64,393.69 906.16,171.81 860.77,-527.74z"/>
   <path class="fil0" d="M25919.76 7691.14c-84.37,205.88 -169.02,198.46 -241.18,404.56 166.01,160.05 369.99,337.65 588.7,426.37 160.49,-214.86 431.78,-502.82 179.33,-758.55l-204.93 -151.73c-113.64,32.45 -247.42,67.7 -321.92,79.35z"/>
   <path class="fil0" d="M7992.81 11654.97l84.54 -23.64c-61.62,-312.89 -50.52,-3971.92 -16.95,-4448.42l777.23 -3.96c35.02,546.65 63.96,4131.52 -24.76,4460.63l47.29 2.35c85.65,-317.91 59.94,-3958.37 24.48,-4498.22 -258.69,-35.8 -644.91,-54.03 -898.24,17.18l6.41 4494.08z"/>
   <path class="fil0" d="M12419.21 13284.44c56.48,-470.03 687.22,-481.3 753.3,-0.67l-753.3 0.67zm35.02 -401.95c-29.39,58.28 -423.58,519.89 -34.47,879.9 259.41,239.95 711.27,186.02 823.52,-148.5 -36.19,6.24 -790.5,488.1 -813.59,-218.37l891.32 3.29c-13.99,-443.88 -227.85,-603.64 -688.23,-569.96l-178.55 53.64z"/>
   <path class="fil0" d="M10847.96 13279.03l-751.25 7.36c68.43,-491.78 694.04,-465.85 751.25,-7.36zm-758.38 -310.1c-598.07,764.29 585.57,1295.33 826.3,654.22 -301.35,22.86 -218.65,205.65 -503.66,159.26 -183.74,-29.84 -307.03,-176.61 -302.57,-382.99l891.21 -5.69 -35.69 -293.2c-136.06,-111.3 -168.35,-232.2 -395.36,-272.68 -230.41,-41.05 -352.98,34.74 -480.23,141.08z"/>
   <path class="fil0" d="M16704.74 13284.16c74.44,-496.91 695.59,-458.99 751.36,0.89l-751.36 -0.89zm77.29 296.49c-41.27,-49.35 -29.39,-18.84 -62.51,-101.21 -28.39,-70.59 -4.19,-22.69 -2.29,-83.42l871.03 -6.02 13.1 -148.78c-175.6,-633.81 -968.95,-507.28 -1058.11,17.01 -109.8,645.41 793.73,896.68 981.21,364.47 -135.34,8.42 -601.57,390.29 -742.43,-42.05z"/>
   <path class="fil0" d="M5593.31 13276.07c55.49,-451.68 671.73,-479.12 752.08,10.54l-752.08 -10.54zm-72.88 -270c-325.66,1001.34 674.74,1105.51 900.25,624.32 -306.93,-10.37 -138.47,203.26 -562.1,137.18 -148.22,-81.8 -248.54,-152.73 -256.4,-359.62l898.4 -11.09 -69.81 -377.74c-169.24,-73.61 -182.4,-211.13 -477.67,-200.36 -220.27,7.97 -304.86,135.5 -432.67,187.31z"/>
   <path class="fil0" d="M14182.06 13477.99c-135.62,-539.9 633.47,-750.85 744.88,-230.91 126.92,592.37 -629.62,689.73 -744.88,230.91zm230.91 -628.84c-706.86,209.06 -361.18,1268.34 336.59,1020.53 592.99,-210.62 348.02,-1223.01 -336.59,-1020.53z"/>
   <path class="fil0" d="M12104.09 12793.11c-181.96,76.34 -121.51,22.47 -199.53,219.31 -79.46,200.64 -179.78,539.96 -286.01,685.45 -99.2,-146.49 -310.15,-643.01 -309.37,-838.52l-186.25 -42.1c47.79,206.72 126.02,362.19 209.5,570.85 126.92,317.18 121.12,443.88 286.12,519.38 152.41,-82.03 164.45,-222.16 270.01,-492.05 82.59,-211.35 182.07,-387.28 215.53,-622.32z"/>
   <path class="fil0" d="M13930.51 13855.68c-76.57,-182.35 -0.62,-26.32 -229.86,-128.42l-4.57 -1054.99c2.17,-235.72 48.85,-215.19 -94.58,-278.71 -6.69,9.65 -16.5,12.77 -18.23,30.06l-33.79 393.13c5.91,626.22 -124.08,1291.48 381.03,1038.93z"/>
   <path class="fil0" d="M17835.45 13929.96l134.56 -49.97 27.72 -740.59c414.15,-348.41 254,-57.38 369.99,-275.2 -225.34,-121.28 -330.96,130.77 -358.67,86.83 -6.92,-10.99 -26.55,14.72 -45.62,21.13l28.66 -139.46c-164.94,6.47 -67.36,-48.96 -162.55,31.5l5.91 1065.76z"/>
   <path class="fil0" d="M22135.15 13303.84l576.37 -236.38c-84.87,-155.75 -293.03,-302.51 -489.54,-371.22l-86.83 607.6z"/>
  </g>
 </g>
</svg>
